{"title":"WWE WrestleMania 29 2013 HDTV XviD FICEK9","uid":8510783,"size":2516852306,"categoryP":"video","categoryS":"tv_shows","magnet":"?xt=urn:btih:9cc37dc9b14e06c5d23641451938713077b191b3&amp;dn=WWE+WrestleMania+29+2013+HDTV+XviD+FICEK9&amp;tr=udp%3A%2F%2Ftracker.openbittorrent.com%3A80&amp;tr=udp%3A%2F%2Fopen.demonii.com%3A1337&amp;tr=udp%3A%2F%2Ftracker.coppersurfer.tk%3A6969&amp;tr=udp%3A%2F%2Fexodus.desync.com%3A6969","seeders":1,"leechers":1,"uploader":"FICEK9","files":2,"time":1369578544,"description":"\n      Complete name : WWE.WrestleMania.29.2013.04.07.HDTV.XviD-FICEK9.avi\n      Format : AVI\n      Format/Info : Audio Video Interleave\n      Format profile : OpenDML\n      File size : 2.34 GiB\n      Duration : 3h 50mn\n      Overall bit rate mode : Variable\n      Overall bit rate : 1 453 Kbps\n      Writing application : MEncoder SVN-r33883(20110719-gcc4.5.2)\n      Writing library : MPlayer\n   Video #0\n      ID : 0\n      Format : MPEG-4 Visual\n      Format profile : Advanced Simple@L5\n      Format settings, BVOP : 2\n      Format settings, QPel : No\n      Format settings, GMC : No warppoints\n      Format settings, Matrix : Default (H.263)\n      Codec ID : XVID\n      Codec ID/Hint : XviD\n      Duration : 3h 50mn\n      Bit rate : 1 317 Kbps\n      Width : 624 pixels\n      Height : 352 pixels\n      Display aspect ratio : 16:9\n      Original display aspect ratio : 16:9\n      Frame rate : 29.970 fps\n      Color space : YUV\n      Chroma subsampling : 4:2:0\n      Bit depth : 8 bits\n      Scan type : Progressive\n      Compression mode : Lossy\n      Bits/(Pixel*Frame) : 0.200\n      Stream size : 2.13 GiB (91%)\n      Writing library : XviD 1.2.1 (UTC 2008-12-04)\n   Audio #1\n      ID : 1\n      Format : MPEG Audio\n      Format version : Version 1\n      Format profile : Layer 3\n      Mode : Joint stereo\n      Mode extension : MS Stereo\n      Codec ID : 55\n      Codec ID/Hint : MP3\n      Duration : 3h 50mn\n      Bit rate mode : Variable\n      Bit rate : 123 Kbps\n      Channel(s) : 2 channels\n      Sampling rate : 48.0 KHz\n      Compression mode : Lossy\n      Stream size : 202 MiB (8%)\n      Alignment : Aligned on interleaves\n      Interleave, duration : 24 ms (0.72 video frame)\n      Interleave, preload duration : 538 ms\n","torrent":{"xt":"urn:btih:9cc37dc9b14e06c5d23641451938713077b191b3","amp;dn":"WWE+WrestleMania+29+2013+HDTV+XviD+FICEK9","amp;tr":["udp%3A%2F%2Ftracker.openbittorrent.com%3A80","udp%3A%2F%2Fopen.demonii.com%3A1337","udp%3A%2F%2Ftracker.coppersurfer.tk%3A6969","udp%3A%2F%2Fexodus.desync.com%3A6969"],"infoHash":"9cc37dc9b14e06c5d23641451938713077b191b3","infoHashBuffer":{"type":"Buffer","data":[156,195,125,201,177,78,6,197,210,54,65,69,25,56,113,48,119,177,145,179]},"announce":[],"urlList":[]}}